# AST/ASF file generated using VICON BodyLanguage
# -----------------------------------------------
:version 1.10
:name VICON
:units
  mass 1.0
  length 0.45
  angle deg
:documentation
   .ast/.asf automatically generated from VICON data using
   VICON BodyBuilder and BodyLanguage model FoxedUp or BRILLIANT.MOD
:root
   order TX TY TZ RX RY RZ
   axis XYZ
   position 0 0 0  
   orientation 0 0 0 
:bonedata
  begin
     id 1 
     name lhipjoint
     direction 0.714689 -0.624256 0.315473 
     length 2.45343 
     axis 0 0 0  XYZ
  end
  begin
     id 2 
     name lfemur
     direction 0.34202 -0.939693 0  
     length 6.59069  
     axis 0 0 20  XYZ
    dof rx ry rz
    limits (-160.0 20.0)
           (-70.0 70.0)
           (-60.0 70.0)
  end
  begin
     id 3 
     name ltibia
     direction 0.34202 -0.939693 0   
     length 6.73476   
     axis 0 0 20   XYZ
    dof rx
    limits (-10.0 170.0)
  end
  begin
     id 4 
     name lfoot
     direction 0.0718085 -0.197292 0.977711   
     length 1.52607   
     axis -90 7.62852e-016 20   XYZ
    dof rx rz
    limits (-45.0 90.0)
           (-70.0 20.0)
  end
  begin
     id 5 
     name ltoes
     direction 1.53553e-011 -4.22024e-011 1   
     length 0.777832   
     axis -90 7.62852e-016 20   XYZ
    dof rx
    limits (-90.0 20.0)
  end
  begin
     id 6 
     name rhipjoint
     direction -0.727419 -0.612432 0.309497   
     length 2.50079  
     axis 0 0 0  XYZ 
  end
  begin
     id 7 
     name rfemur
     direction -0.34202 -0.939693 0   
     length 6.51665   
     axis 0 0 -20   XYZ
    dof rx ry rz
    limits (-160.0 20.0)
           (-70.0 70.0)
           (-70.0 60.0)
  end
  begin
     id 8 
     name rtibia
     direction -0.34202 -0.939693 0   
     length 6.48919   
     axis 0 0 -20   XYZ
    dof rx
    limits (-10.0 170.0)
 end
 begin
     id 9 
     name rfoot
     direction -0.112205 -0.308282 0.944655   
     length 1.68717  
     axis -90 -7.62852e-016 -20   XYZ
    dof rx rz
    limits (-45.0 90.0)
           (-20.0 70.0)
  end
  begin
     id 10 
     name rtoes
     direction -1.53583e-011 -4.21993e-011 1   
     length 0.846859   
     axis -90 -7.62852e-016 -20   XYZ
    dof rx
    limits (-90.0 20.0)
  end
  begin
     id 11 
     name lowerback
     direction -0.00119603 0.996364 -0.0851956   
     length 1.67242   
     axis 0 0 0   XYZ
    dof rx ry rz
    limits (-20.0 45.0)
           (-30.0 30.0)
           (-30.0 30.0)
  end
  begin
     id 12 
     name upperback
     direction -0.00531001 0.998318 0.0577248   
     length 1.64819   
     axis 0 0 0   XYZ
    dof rx ry rz
    limits (-20.0 45.0)
           (-30.0 30.0)
           (-30.0 30.0)
  end
  begin
     id 13 
     name thorax
     direction -0.00653676 0.995132 0.0983291   
     length 1.67429   
     axis 0 0 0   XYZ
    dof rx ry rz
    limits (-20.0 45.0)
           (-30.0 30.0)
           (-30.0 30.0)
  end
  begin
     id 14 
     name lowerneck
     direction 0.0141424 0.999886 0.00525412   
     length 1.59623   
     axis 0 0 0   XYZ
    dof rx ry rz
    limits (-20.0 45.0)
           (-30.0 30.0)
           (-30.0 30.0)
  end
  begin
     id 15 
     name upperneck
     direction -0.0640064 0.987178 -0.146232   
     length 1.59576   
     axis 0 0 0   XYZ
    dof rx ry rz
    limits (-20.0 45.0)
           (-30.0 30.0)
           (-30.0 30.0)
  end
  begin
     id 16
     name head
     direction -0.0222942 0.998496 -0.0500859  
     length 1.60959  
     axis 0 0 0   XYZ
    dof rx ry rz
    limits (-20.0 45.0)
           (-30.0 30.0)
           (-30.0 30.0)
  end
  begin
     id 17 
     name lclavicle
     direction 0.908549 0.392612 0.142806  
     length 2.80649  
     axis 0 0 0   XYZ
    dof ry rz
    limits (-20.0 10.0)
           (0.0 20.0)
  end
  begin
     id 18 
     name lhumerus
     direction 1 -4.48968e-011 1.08832e-028   
     length 4.2884   
     axis -180 -30 -90   XYZ
    dof rx ry rz
    limits (-60.0 90.0)
           (-90.0 90.0)
           (-90.0 90.0)
  end
  begin
     id 19
     name lradius
     direction 1 -4.48952e-011 -3.02642e-028   
     length 3.06552   
     axis -180 -30 -90   XYZ
    dof rx
    limits (-10.0 170.0)
  end
  begin
     id 20
     name lwrist
     direction 1 -4.49014e-011 1.58672e-027   
     length 1.53276   
     axis -1.65735e-015 90 90   XYZ
    dof ry
    limits (-180.0 0.0)
 end
  begin
     id 21 
     name lhand
     direction 1 -4.48928e-011 3.17344e-027   
     length 0.753045   
     axis -2.02492e-015 90 90   XYZ
    dof rx rz
    limits (-90.0 90.0)
           (-45.0 45.0)
  end
  begin
     id 22 
     name lfingers
     direction 1 -4.48958e-011 6.34687e-027   
     length 0.607124   
     axis -4.04985e-015 90 90   XYZ
    dof rx
    limits (0.0 90.0)
  end
  begin
     id 23
     name lthumb
     direction 0.707107 -6.34905e-011 0.707107   
     length 0.871712   
     axis -90 45 2.85299e-015   XYZ
    dof rx rz
    limits (-45.0 45.0)
           (-45.0 45.0)
  end
  begin
     id 24 
     name rclavicle
     direction -0.885098 0.45949 0.0739604   
     length 2.9478  
     axis 0 0 0   XYZ 
    dof ry rz
    limits (-10.0 20.0)
           (-20.0 0.0)
  end
  begin
     id 25 
     name rhumerus
     direction -1 -4.4898e-011 -2.61739e-027  
     length 4.52172   
     axis -180 30 90   XYZ
    dof rx ry rz
    limits (-90.0 60.0)
           (-90.0 90.0)
           (-90.0 90.0)
  end
  begin
     id 26 
     name rradius
     direction -1 -4.48945e-011 9.02552e-028   
     length 2.8914   
     axis -180 30 90   XYZ
    dof rx
    limits (-10.0 170.0)
  end
  begin
     id 27 
     name rwrist
     direction -1 -4.49018e-011 1.58672e-027   
     length 1.4457   
     axis -1.65735e-015 -90 -90   XYZ
    dof ry
    limits (-180.0 0.0)
  end
  begin
     id 28
     name rhand
     direction -1 -4.48825e-011 3.17344e-027   
     length 0.680541   
     axis -2.02492e-015 -90 -90   XYZ
    dof rx rz
    limits (-90.0 90.0)
           (-45.0 45.0)
  end
  begin
     id 29
     name rfingers
     direction -1 -4.49067e-011 6.34687e-027   
     length 0.54867   
     axis -4.04985e-015 -90 -90   XYZ
    dof rx
    limits (0.0 90.0)
  end
  begin
     id 30
     name rthumb
     direction -0.707107 -6.34833e-011 0.707107   
     length 0.787783   
     axis -90 -45 -2.85299e-015   XYZ
    dof rx rz
    limits (-45.0 45.0)
           (-45.0 45.0)
  end
:hierarchy
  begin
    root lhipjoint rhipjoint lowerback
    lhipjoint lfemur
    lfemur ltibia
    ltibia lfoot
    lfoot ltoes
    rhipjoint rfemur
    rfemur rtibia
    rtibia rfoot
    rfoot rtoes
    lowerback upperback
    upperback thorax
    thorax lowerneck lclavicle rclavicle
    lowerneck upperneck
    upperneck head
    lclavicle lhumerus
    lhumerus lradius
    lradius lwrist
    lwrist lhand lthumb
    lhand lfingers
    rclavicle rhumerus
    rhumerus rradius
    rradius rwrist
    rwrist rhand rthumb
    rhand rfingers
  end

#!OML:ASF E:\emotionWalksFemale\Project 1\Capture day 1\Session 1\Female1.ASF
:FULLY-SPECIFIED
:DEGREES
833
root 9.04153 14.5532 33.7112 -176.817 8.37299 -170.621
lowerback 13.3779 2.14086 -3.0213
upperback -2.47592 2.22757 -1.70894
thorax -10.2661 1.20502 -0.635714
lowerneck -5.43096 -3.43045 -7.90579
upperneck 7.68174 -4.79309 13.6049
head 3.69456 -1.87578 5.25556
rclavicle 8.74653e-015 4.92986e-014
rhumerus -53.5725 28.4444 -111.777
rradius 46.9339
rwrist -9.35098
rhand 11.1784 -51.6517
rfingers 7.12502
rthumb -143.757 462.092
lclavicle 8.74653e-015 4.92986e-014
lhumerus -49.8817 16.9907 53.8433
lradius 31.2184
lwrist -23.6287
lhand -1.41494 -29.5325
lfingers 7.12502
lthumb 24.2344 -1.04389
rfemur -9.69911 1.30957 36.0341
rtibia 36.3853
rfoot -28.0172 -17.0049
rtoes 1.04305
lfemur -44.1988 -18.0034 5.07544
ltibia 34.4018
lfoot -17.3861 17.8553
ltoes -21.6264
834
root 9.03301 14.5309 33.6137 -176.64 9.31977 -170.404
lowerback 13.4893 2.26503 -3.01395
upperback -2.49957 2.38949 -1.69177
thorax -10.3607 1.28191 -0.663212
lowerneck -5.58546 -3.27364 -7.668
upperneck 7.66609 -4.58142 13.4561
head 3.68361 -1.76777 5.17855
rclavicle -4.77083e-015 2.22639e-014
rhumerus -53.4283 28.4704 -111.76
rradius 46.9212
rwrist -9.22331
rhand 11.3609 -51.5462
rfingers 7.12502
rthumb -143.584 462.241
lclavicle -4.77083e-015 2.22639e-014
lhumerus -50.8202 17.6636 52.8534
lradius 31.0317
lwrist -23.6922
lhand -2.07376 -28.9647
lfingers 7.12502
lthumb 23.6026 -0.393248
rfemur -9.45912 1.62304 36.0849
rtibia 36.6239
rfoot -28.3423 -16.6772
rtoes -0.476684
lfemur -44.0702 -18.9386 6.28487
ltibia 33.5641
lfoot -17.9884 19.3165
ltoes -17.2576
835
root 9.02839 14.5156 33.5068 -176.454 9.95602 -170.283
lowerback 13.415 2.28065 -3.07891
upperback -2.51318 2.40144 -1.70291
thorax -10.3352 1.29146 -0.638693
lowerneck -5.45559 -3.0651 -7.52963
upperneck 7.40565 -4.29183 13.5187
head 3.55079 -1.62796 5.19111
rclavicle 2.54444e-014 -6.36111e-015
rhumerus -53.3603 28.3981 -111.754
rradius 46.8577
rwrist -8.90578
rhand 11.8594 -51.7343
rfingers 7.12502
rthumb -143.112 462.172
lclavicle 2.54444e-014 -6.36111e-015
lhumerus -51.951 17.7188 52.2646
lradius 31.5971
lwrist -22.9521
lhand -1.93351 -28.6897
lfingers 7.12502
lthumb 23.7372 -0.135635
rfemur -9.18563 1.78285 36.0583
rtibia 36.82
rfoot -28.7757 -16.3092
rtoes -0.600405
lfemur -43.9544 -19.7571 7.09038
ltibia 32.9534
lfoot -18.7621 20.8755
ltoes -12.343
836
root 9.02327 14.4957 33.3954 -176.341 10.1802 -170.161
lowerback 13.3565 2.14014 -3.05726
upperback -2.46421 2.22063 -1.71299
thorax -10.2419 1.20336 -0.616968
lowerneck -5.31832 -2.86688 -7.61306
upperneck 7.18989 -4.01429 13.8209
head 3.44097 -1.48647 5.31643
rclavicle 1.70955e-014 1.08139e-013
rhumerus -53.3349 28.3358 -111.744
rradius 46.807
rwrist -8.59386
rhand 12.1387 -51.701
rfingers 7.12502
rthumb -142.848 462.274
lclavicle 1.70955e-014 1.08139e-013
lhumerus -52.9786 17.6916 51.8146
lradius 32.191
lwrist -21.8752
lhand -1.87089 -29.0027
lfingers 7.12502
lthumb 23.7972 -0.456459
rfemur -8.85611 1.68269 36.0804
rtibia 36.9953
rfoot -29.0522 -16.4542
rtoes -0.770401
lfemur -43.8575 -20.4034 7.50307
ltibia 32.5118
lfoot -19.193 22.2511
ltoes -10.0319
837
root 9.01493 14.469 33.2934 -176.161 11.219 -169.917
lowerback 13.3734 2.27334 -3.13331
upperback -2.44548 2.38867 -1.65963
thorax -10.2399 1.28901 -0.554027
lowerneck -5.4197 -2.72663 -7.61521
upperneck 7.18901 -3.82293 13.8978
head 3.43809 -1.3849 5.35087
rclavicle -2.36554e-014 -6.83819e-014
rhumerus -53.3198 28.3439 -111.667
rradius 46.789
rwrist -8.27194
rhand 12.3065 -51.4912
rfingers 7.12502
rthumb -142.689 462.525
lclavicle -2.36554e-014 -6.83819e-014
lhumerus -53.8661 18.2185 51.1193
lradius 32.3316
lwrist -21.5898
lhand -3.69002 -30.9194
lfingers 7.12502
lthumb 22.0516 -2.15665
rfemur -8.5449 2.11627 36.1385
rtibia 37.1441
rfoot -29.0004 -16.8031
rtoes -2.89131
lfemur -43.3192 -20.3486 7.77512
ltibia 32.2627
lfoot -19.6295 23.4475
ltoes -8.68994
838
root 9.0046 14.4489 33.1895 -176.041 12.0125 -169.76
lowerback 13.5178 2.31194 -3.24456
upperback -2.44974 2.41582 -1.64229
thorax -10.3357 1.30913 -0.485567
lowerneck -5.47297 -2.56245 -7.24314
upperneck 7.15351 -3.6069 13.5974
head 3.40032 -1.28293 5.2028
rclavicle 5.96354e-015 -1.59028e-014
rhumerus -53.4303 28.3939 -111.718
rradius 46.8367
rwrist -8.05914
rhand 12.603 -51.3932
rfingers 7.12502
rthumb -142.409 462.697
lclavicle 5.96354e-015 -1.59028e-014
lhumerus -54.8115 18.6078 50.4388
lradius 32.5889
lwrist -21.1821
lhand -0.97405 -28.3341
lfingers 7.12502
lthumb 24.6571 0.0974063
rfemur -8.15744 2.33877 36.0852
rtibia 37.2297
rfoot -29.2939 -16.7581
rtoes -4.19312
lfemur -42.7802 -20.2556 7.74387
ltibia 32.201
lfoot -18.8269 24.0619
ltoes -11.6328
